<svg xmlns="http://www.w3.org/2000/svg" viewBox="663 81 1588 480">
  <path fill="#ffffff" d="M 1782.07 85.10 C 1794.09 83.62 1806.80 86.14 1816.75 93.22 C 1830.63 102.82 1838.12 119.48 1839.53 135.95 C 1841.23 154.56 1836.95 174.82 1823.67 188.62 C 1808.87 204.35 1783.31 207.85 1764.47 197.64 C 1749.65 189.83 1740.33 174.14 1737.60 157.93 C 1734.56 139.68 1737.33 119.64 1748.51 104.49 C 1756.37 93.71 1768.84 86.60 1782.07 85.10 M 1778.41 97.55 C 1771.59 99.33 1765.46 103.45 1761.12 108.98 C 1755.00 116.62 1752.06 126.33 1751.08 135.95 C 1750.03 146.63 1750.98 157.71 1755.18 167.67 C 1758.16 174.84 1762.97 181.37 1769.43 185.76 C 1781.95 194.53 1800.62 193.40 1811.71 182.75 C 1818.87 176.00 1822.71 166.45 1824.45 156.92 C 1826.34 145.71 1826.20 133.94 1822.57 123.09 C 1819.90 115.12 1815.08 107.70 1808.18 102.78 C 1799.72 96.63 1788.44 94.95 1778.41 97.55 Z"/>
  <path fill="#ffffff" d="M 1349.55 85.69 C 1364.13 82.70 1380.37 86.07 1391.48 96.32 C 1389.37 99.18 1387.01 101.84 1384.84 104.66 C 1378.46 100.03 1370.99 96.66 1363.06 96.13 C 1356.20 95.61 1348.71 96.70 1343.31 101.27 C 1338.09 105.59 1336.29 113.31 1338.66 119.59 C 1340.08 123.12 1342.97 125.83 1346.09 127.89 C 1356.53 134.61 1368.90 137.73 1379.02 145.00 C 1385.68 149.74 1391.00 156.84 1392.22 165.07 C 1393.62 174.50 1391.23 184.72 1384.85 191.96 C 1380.23 197.32 1373.69 200.73 1366.85 202.27 C 1351.07 205.84 1333.85 201.54 1321.38 191.29 C 1323.47 188.23 1325.58 185.17 1327.58 182.04 C 1335.58 186.98 1344.41 191.22 1353.94 191.84 C 1360.22 192.06 1366.98 191.07 1372.08 187.10 C 1377.78 182.67 1379.82 174.79 1378.67 167.88 C 1377.60 162.12 1373.21 157.68 1368.50 154.55 C 1357.21 147.11 1343.38 143.97 1333.14 134.88 C 1322.75 125.84 1321.99 108.81 1329.85 97.92 C 1334.48 91.44 1341.85 87.34 1349.55 85.69 Z"/>
  <path fill="#ffffff" d="M 692.95 86.80 C 697.48 86.79 702.02 86.85 706.56 86.73 C 706.83 112.81 706.51 138.89 706.72 164.97 C 706.75 171.70 708.26 178.91 713.19 183.83 C 720.06 190.74 730.61 192.55 739.95 191.20 C 747.65 190.13 755.05 185.55 758.45 178.40 C 760.98 172.98 761.16 166.85 761.35 160.97 C 761.55 136.23 761.28 111.49 761.50 86.75 C 765.98 86.83 770.45 86.80 774.94 86.80 C 774.94 103.87 774.93 120.93 774.94 138.00 C 774.76 149.34 775.43 160.75 773.95 172.03 C 772.96 179.82 769.87 187.59 763.98 192.97 C 755.53 201.01 743.39 203.80 732.01 203.37 C 719.79 203.04 707.00 198.22 699.61 188.08 C 694.11 180.62 693.10 171.02 693.01 162.03 C 692.88 136.95 692.98 111.88 692.95 86.80 Z"/>
  <path fill="#ffffff" d="M 818.97 86.80 C 823.65 86.80 828.34 86.79 833.03 86.82 C 851.47 118.12 869.67 149.58 888.31 180.76 C 888.39 149.44 888.10 118.12 888.05 86.80 C 892.26 86.81 896.49 86.75 900.72 86.88 C 900.55 125.02 900.79 163.17 900.59 201.31 C 895.81 201.21 891.03 201.33 886.26 201.20 C 868.02 169.94 849.68 138.74 831.23 107.61 C 831.28 138.84 831.55 170.08 831.50 201.31 C 827.32 201.24 823.14 201.26 818.97 201.27 C 818.96 163.11 818.96 124.96 818.97 86.80 Z"/>
  <path fill="#ffffff" d="M 992.61 86.80 C 997.39 86.80 1002.18 86.80 1006.96 86.80 C 1018.12 120.49 1029.21 154.20 1040.40 187.88 C 1051.81 154.16 1063.29 120.46 1074.81 86.78 C 1079.23 86.81 1083.67 86.79 1088.10 86.80 C 1074.70 124.95 1061.26 163.09 1047.89 201.25 C 1042.62 201.28 1037.34 201.27 1032.07 201.26 C 1018.94 163.10 1005.75 124.96 992.61 86.80 Z"/>
  <path fill="#ffffff" d="M 1572.95 86.81 C 1578.22 86.82 1583.49 86.73 1588.77 86.88 C 1597.95 104.75 1607.47 122.44 1616.72 140.28 C 1626.30 122.68 1635.05 104.62 1644.27 86.81 C 1649.24 86.79 1654.22 86.80 1659.21 86.81 C 1647.34 109.43 1635.46 132.04 1623.59 154.65 C 1622.77 155.99 1622.82 157.57 1622.83 159.08 C 1622.88 173.14 1622.84 187.20 1622.86 201.26 C 1618.30 201.26 1613.74 201.32 1609.20 201.20 C 1609.22 186.15 1609.44 171.07 1609.09 156.03 C 1597.32 132.83 1584.87 109.95 1572.95 86.81 Z"/>
  <path fill="#ffffff" d="M 1430.59 86.82 C 1435.18 86.82 1439.77 86.82 1444.37 86.82 C 1444.38 124.97 1444.38 163.12 1444.37 201.28 C 1439.77 201.28 1435.18 201.28 1430.59 201.27 C 1430.59 163.12 1430.59 124.97 1430.59 86.82 Z"/>
  <path fill="#ffffff" d="M 1877.58 86.82 C 1897.86 86.82 1918.13 86.82 1938.41 86.82 C 1938.40 90.62 1938.40 94.43 1938.41 98.23 C 1922.69 98.24 1906.97 98.23 1891.25 98.23 C 1891.25 110.82 1891.27 123.40 1891.24 135.99 C 1906.02 136.07 1920.81 135.89 1935.60 136.07 C 1935.50 139.73 1935.50 143.39 1935.59 147.04 C 1920.81 147.26 1906.02 147.07 1891.25 147.14 C 1891.26 165.19 1891.25 183.23 1891.25 201.28 C 1886.69 201.28 1882.13 201.28 1877.58 201.28 C 1877.58 163.12 1877.58 124.97 1877.58 86.82 Z"/>
  <path fill="#ffffff" d="M 1475.17 86.83 C 1502.43 86.81 1529.68 86.82 1556.94 86.82 C 1556.93 90.62 1556.93 94.43 1556.94 98.23 C 1545.63 98.22 1534.32 98.25 1523.02 98.22 C 1522.98 132.57 1523.01 166.93 1523.00 201.28 C 1518.45 201.29 1513.90 201.21 1509.37 201.37 C 1509.02 166.98 1509.42 132.57 1509.17 98.18 C 1497.84 98.30 1486.50 98.20 1475.17 98.23 C 1475.17 94.43 1475.17 90.63 1475.17 86.83 Z"/>
  <path fill="#ffffff" d="M 1119.25 86.84 C 1139.98 86.75 1160.71 86.92 1181.45 86.76 C 1181.59 90.59 1181.56 94.43 1181.49 98.26 C 1165.26 98.19 1149.02 98.26 1132.79 98.22 C 1132.76 110.82 1132.78 123.41 1132.78 136.00 C 1148.06 136.05 1163.34 135.89 1178.63 136.08 C 1178.52 139.71 1178.52 143.34 1178.64 146.97 C 1163.36 147.35 1148.07 147.04 1132.78 147.13 C 1132.74 161.24 1132.84 175.35 1132.74 189.45 C 1149.46 189.62 1166.18 189.46 1182.91 189.53 C 1182.89 193.45 1182.89 197.36 1182.90 201.27 C 1161.68 201.26 1140.46 201.32 1119.24 201.24 C 1119.30 163.11 1119.28 124.98 1119.25 86.84 Z"/>
  <path fill="#ffffff" d="M 1219.29 201.19 C 1219.52 163.04 1219.17 124.88 1219.47 86.72 C 1231.98 86.96 1244.50 86.57 1257.01 87.07 C 1264.86 87.48 1273.18 89.30 1279.04 94.93 C 1288.51 103.50 1291.03 117.99 1286.93 129.80 C 1283.48 139.51 1273.80 145.81 1263.89 147.28 C 1270.74 148.23 1275.45 153.93 1278.17 159.87 C 1284.65 173.55 1290.60 187.46 1296.80 201.27 C 1292.06 201.28 1287.33 201.21 1282.60 201.33 C 1277.12 189.68 1272.30 177.72 1266.71 166.11 C 1263.98 160.64 1260.52 154.58 1254.22 152.79 C 1247.27 150.95 1239.98 151.63 1232.88 151.47 C 1232.87 168.07 1232.87 184.67 1232.87 201.26 C 1228.34 201.25 1223.81 201.32 1219.29 201.19 M 1232.88 97.80 C 1232.87 112.04 1232.87 126.29 1232.88 140.53 C 1241.57 140.40 1250.43 141.12 1258.95 138.95 C 1264.37 137.59 1269.47 134.30 1272.28 129.36 C 1276.37 122.37 1276.12 113.06 1271.74 106.26 C 1268.04 100.80 1261.33 98.32 1254.96 97.99 C 1247.61 97.58 1240.23 97.90 1232.88 97.80 Z"/>
  <path fill="#ffffff" d="M 948.50 201.34 C 948.35 163.15 948.35 124.95 948.51 86.76 C 953.06 86.86 957.63 86.81 962.19 86.82 C 962.20 124.97 962.20 163.13 962.19 201.28 C 957.63 201.28 953.06 201.23 948.50 201.34 Z"/>
  <path fill="#ffffff" d="M 783.60 302.73 C 818.73 299.07 855.60 309.28 882.42 332.63 C 897.81 345.84 909.74 363.05 916.73 382.10 C 929.89 418.11 925.96 460.12 905.84 492.83 C 891.73 515.99 869.53 533.93 844.13 543.35 C 803.94 558.31 756.28 553.01 721.24 527.91 C 697.32 511.01 680.04 485.06 673.69 456.47 C 665.34 419.36 673.65 378.31 697.73 348.55 C 718.51 322.36 750.43 305.89 783.60 302.73 M 786.55 314.78 C 773.27 316.38 760.41 321.52 749.87 329.78 C 736.64 340.04 727.19 354.50 721.06 369.93 C 712.66 391.17 709.90 414.33 711.09 437.05 C 712.09 456.15 715.92 475.35 724.35 492.63 C 731.45 507.26 742.26 520.38 756.35 528.73 C 771.73 538.02 790.36 541.04 808.07 538.93 C 821.87 537.32 835.27 531.91 846.06 523.11 C 859.10 512.62 868.34 498.05 874.30 482.55 C 882.75 460.49 885.22 436.47 883.56 413.02 C 882.17 393.80 877.81 374.52 868.68 357.44 C 861.03 343.13 849.59 330.54 835.09 323.00 C 820.32 315.15 803.05 312.80 786.55 314.78 Z"/>
  <path fill="#ffffff" d="M 1557.66 302.83 C 1593.54 298.84 1631.35 309.39 1658.47 333.59 C 1673.01 346.38 1684.34 362.75 1691.22 380.85 C 1705.55 418.70 1700.77 463.45 1678.08 497.07 C 1661.73 521.51 1636.17 539.40 1607.82 546.97 C 1568.59 557.63 1524.19 550.06 1492.00 524.79 C 1466.87 505.41 1450.19 475.67 1446.50 444.17 C 1441.93 408.00 1452.77 369.64 1477.71 342.70 C 1498.18 320.06 1527.38 305.95 1557.66 302.83 M 1561.58 314.77 C 1550.40 316.13 1539.49 319.91 1530.05 326.08 C 1516.27 334.93 1505.94 348.37 1499.02 363.07 C 1490.09 382.07 1486.21 403.15 1485.84 424.05 C 1485.56 445.76 1488.53 467.83 1497.15 487.89 C 1503.76 503.31 1514.15 517.45 1528.24 526.79 C 1541.64 535.81 1557.96 539.91 1574.03 539.55 C 1589.48 539.37 1605.02 534.80 1617.61 525.70 C 1631.85 515.55 1642.02 500.55 1648.52 484.48 C 1657.48 462.22 1660.18 437.80 1658.61 413.96 C 1657.30 394.40 1652.93 374.75 1643.61 357.38 C 1636.06 343.27 1624.84 330.86 1610.62 323.29 C 1595.74 315.24 1578.26 312.77 1561.58 314.77 Z"/>
  <path fill="#ffffff" d="M 935.79 306.00 C 971.16 306.01 1006.53 305.99 1041.91 306.01 C 1041.89 308.94 1041.89 311.87 1041.88 314.80 C 1034.27 316.37 1026.66 317.96 1019.04 319.46 C 1017.12 319.95 1014.84 320.25 1013.64 322.01 C 1013.17 324.29 1014.81 326.20 1015.94 327.99 C 1034.26 354.12 1052.47 380.32 1070.81 406.44 C 1071.50 408.28 1073.17 407.28 1073.79 406.00 C 1092.60 379.71 1111.46 353.46 1130.23 327.15 C 1131.82 325.38 1132.67 322.13 1129.69 321.28 C 1121.67 318.50 1113.25 316.95 1105.04 314.79 C 1105.02 311.86 1105.02 308.93 1105.02 306.00 C 1133.45 305.99 1161.88 306.00 1190.32 306.00 C 1190.31 308.94 1190.31 311.88 1190.29 314.83 C 1180.75 317.47 1170.89 319.04 1161.59 322.48 C 1153.47 325.49 1148.39 332.77 1143.31 339.32 C 1122.26 365.83 1101.20 392.33 1080.18 418.86 C 1105.24 451.82 1130.24 484.82 1155.28 517.80 C 1159.32 523.67 1164.25 529.32 1171.14 531.82 C 1179.35 534.82 1187.98 536.45 1196.36 538.90 C 1196.36 541.80 1196.36 544.71 1196.41 547.62 C 1161.03 547.74 1125.64 547.63 1090.27 547.67 C 1090.26 544.76 1090.26 541.85 1090.24 538.95 C 1099.15 536.86 1108.30 535.70 1117.08 533.11 C 1120.21 532.09 1118.57 528.55 1117.15 526.75 C 1099.77 502.18 1082.31 477.67 1064.89 453.13 C 1061.93 449.09 1059.25 444.84 1056.01 441.02 C 1037.28 466.07 1019.27 491.69 1000.82 516.96 C 998.08 521.03 994.72 524.71 992.48 529.08 C 991.53 531.68 994.86 532.65 996.69 533.28 C 1004.12 535.30 1011.65 536.91 1019.09 538.91 C 1019.10 541.84 1019.10 544.78 1018.98 547.71 C 990.59 547.63 962.21 547.66 933.83 547.69 C 933.79 544.76 933.79 541.83 933.81 538.90 C 941.84 536.93 949.88 535.00 957.86 532.83 C 964.24 531.09 970.18 527.58 974.39 522.42 C 998.96 491.78 1023.32 460.95 1047.94 430.35 C 1025.40 400.12 1002.57 370.11 979.91 339.96 C 974.88 333.45 970.42 325.77 962.45 322.48 C 953.87 319.01 944.69 317.32 935.81 314.79 C 935.78 311.86 935.78 308.93 935.79 306.00 Z"/>
  <path fill="#ffffff" d="M 1726.86 306.00 C 1758.25 306.00 1789.65 306.00 1821.04 306.00 C 1840.13 306.01 1859.65 305.71 1878.13 311.22 C 1896.41 316.52 1911.80 330.58 1918.96 348.18 C 1925.63 363.97 1925.16 382.75 1916.91 397.87 C 1908.52 413.68 1893.07 424.66 1876.50 430.62 C 1872.35 432.27 1867.88 432.95 1863.83 434.83 C 1872.42 439.42 1878.26 447.40 1884.27 454.80 C 1901.91 477.26 1918.91 500.21 1936.18 522.96 C 1940.14 528.21 1945.93 532.06 1952.40 533.40 C 1960.73 535.17 1969.03 537.07 1977.35 538.89 C 1977.34 541.79 1977.35 544.70 1977.41 547.61 C 1957.59 547.70 1937.77 547.72 1917.96 547.60 C 1911.47 547.58 1906.97 542.27 1903.47 537.48 C 1884.70 511.26 1865.96 485.03 1847.22 458.79 C 1841.58 451.22 1835.34 442.70 1825.55 440.58 C 1816.29 438.74 1806.78 439.96 1797.42 439.57 C 1797.35 467.07 1797.36 494.57 1797.41 522.07 C 1797.11 526.70 1800.13 531.21 1804.77 532.17 C 1814.80 534.58 1824.93 536.59 1834.99 538.90 C 1834.98 541.83 1834.98 544.76 1834.96 547.69 C 1798.95 547.66 1762.94 547.64 1726.93 547.70 C 1726.84 544.76 1726.84 541.83 1726.87 538.90 C 1736.20 536.50 1745.71 534.72 1754.91 531.82 C 1759.19 530.60 1762.04 526.44 1761.75 522.01 C 1761.82 458.68 1761.79 395.33 1761.77 332.00 C 1762.10 327.47 1759.34 323.09 1754.89 321.86 C 1745.68 319.05 1736.20 317.16 1726.87 314.77 C 1726.85 311.84 1726.85 308.92 1726.86 306.00 M 1797.38 317.47 C 1797.43 354.40 1797.27 391.33 1797.46 428.26 C 1807.97 428.09 1818.48 428.30 1828.99 428.15 C 1839.42 427.98 1850.11 426.35 1859.41 421.38 C 1866.62 417.57 1872.67 411.59 1876.43 404.33 C 1881.70 394.44 1883.29 383.04 1883.34 371.95 C 1883.40 359.93 1880.12 347.66 1872.82 337.99 C 1864.41 326.70 1850.98 319.68 1837.07 318.25 C 1823.88 316.87 1810.60 317.69 1797.38 317.47 Z"/>
  <path fill="#ffffff" d="M 1996.82 306.00 C 2027.53 306.00 2058.25 306.00 2088.97 306.00 C 2111.73 306.03 2134.78 305.40 2157.16 310.34 C 2175.57 314.12 2193.15 322.28 2207.45 334.55 C 2231.82 355.11 2245.41 386.45 2247.59 417.91 C 2249.64 448.41 2243.32 480.70 2224.28 505.26 C 2213.15 519.65 2197.90 530.62 2181.08 537.41 C 2163.23 544.36 2143.95 546.51 2124.94 547.39 C 2082.26 548.03 2039.56 547.45 1996.88 547.71 C 1996.79 544.76 1996.78 541.83 1996.83 538.89 C 2005.89 536.64 2015.05 534.68 2024.04 532.12 C 2028.63 531.02 2032.09 526.82 2031.71 522.01 C 2031.80 459.32 2031.71 396.63 2031.76 333.93 C 2031.74 330.75 2031.71 327.12 2029.38 324.67 C 2026.93 322.17 2023.40 321.31 2020.15 320.44 C 2012.36 318.59 2004.61 316.62 1996.82 314.79 C 1996.80 311.86 1996.80 308.93 1996.82 306.00 M 2067.35 317.46 C 2067.35 386.65 2067.36 455.84 2067.35 525.03 C 2067.45 527.98 2067.26 531.32 2069.17 533.80 C 2071.34 536.28 2074.95 536.14 2077.99 536.27 C 2089.99 536.22 2101.99 536.36 2114.00 536.17 C 2129.32 535.73 2144.98 534.26 2159.26 528.27 C 2174.01 522.16 2185.66 510.06 2193.25 496.21 C 2202.29 479.62 2206.07 460.69 2207.28 441.98 C 2208.39 422.73 2207.27 403.19 2202.38 384.49 C 2198.14 368.46 2190.70 352.95 2179.07 340.97 C 2169.13 330.60 2156.07 323.29 2141.93 320.63 C 2117.37 315.79 2092.20 317.99 2067.35 317.46 Z"/>
  <path fill="#ffffff" d="M 1229.25 306.02 C 1290.14 305.97 1351.03 306.01 1411.93 306.00 C 1411.92 326.16 1411.92 346.31 1411.93 366.46 C 1408.55 366.47 1405.19 366.47 1401.83 366.46 C 1398.00 354.21 1394.14 341.97 1390.30 329.73 C 1389.10 326.00 1387.53 322.06 1384.23 319.70 C 1381.27 317.59 1377.48 317.43 1373.98 317.45 C 1349.23 317.53 1324.47 317.37 1299.72 317.53 C 1299.82 352.18 1299.73 386.82 1299.76 421.46 C 1317.18 421.47 1334.60 421.46 1352.03 421.47 C 1357.07 421.37 1362.63 422.09 1367.12 419.23 C 1371.02 416.75 1372.81 412.23 1374.05 407.98 C 1375.93 401.52 1377.79 395.05 1379.70 388.59 C 1383.02 388.61 1386.35 388.61 1389.69 388.54 C 1389.89 415.40 1389.71 442.26 1389.78 469.12 C 1386.42 469.13 1383.07 469.13 1379.73 469.16 C 1377.63 461.13 1375.69 453.06 1373.64 445.02 C 1372.75 441.51 1371.22 437.93 1368.21 435.73 C 1365.04 433.28 1360.88 432.89 1357.02 432.87 C 1337.93 432.86 1318.85 432.87 1299.76 432.87 C 1299.78 462.54 1299.72 492.21 1299.79 521.88 C 1299.45 526.46 1302.29 531.06 1306.90 532.10 C 1317.00 534.56 1327.22 536.55 1337.35 538.90 C 1337.35 541.78 1337.36 544.67 1337.46 547.57 C 1301.40 547.80 1265.33 547.60 1229.27 547.67 C 1229.26 544.74 1229.26 541.82 1229.26 538.91 C 1236.86 537.11 1244.44 535.25 1252.03 533.42 C 1255.54 532.46 1259.43 531.62 1262.00 528.82 C 1264.12 526.44 1264.17 523.04 1264.21 520.02 C 1264.17 457.37 1264.24 394.71 1264.18 332.05 C 1264.58 327.46 1261.69 323.09 1257.24 321.85 C 1248.04 319.03 1238.57 317.16 1229.26 314.75 C 1229.26 311.84 1229.26 308.93 1229.25 306.02 Z"/>
</svg>
