<svg xmlns="http://www.w3.org/2000/svg" viewBox="0 0 250 250">
  <defs>
    <linearGradient id="g1" x1="0" y1="0" x2="1" y2="0" gradientUnits="userSpaceOnUse" gradientTransform="matrix(206.757,0,0,206.757,1.001,131.034)"><stop offset="0" style="stop-color:rgb(38,148,210)"/><stop offset="0.31" style="stop-color:rgb(27,135,200)"/><stop offset="0.73" style="stop-color:rgb(12,123,190)"/><stop offset="1" style="stop-color:rgb(3,119,187)"/></linearGradient>
    <linearGradient id="g2" x1="0" y1="0" x2="1" y2="0" gradientUnits="userSpaceOnUse" gradientTransform="matrix(206.757,0,0,206.757,42.2417,118.961)"><stop offset="0" style="stop-color:rgb(108,176,225)"/><stop offset="1" style="stop-color:rgb(173,214,242)"/></linearGradient>
  </defs>
  <path d="M37.3,37.3C14.6,60.1 1.7,90.4 1,122.5L1,127.2C1.6,159.5 14.5,189.8 37.3,212.5C60.1,235.3 90.4,248.2 122.5,248.8L127.3,248.8C127.8,248.8 128.3,248.8 128.7,248.7C130.2,248.6 131.6,248.5 133.1,248.4C134.1,248.3 135,248.2 136,248.1C145.9,246.8 155.3,243.7 163.9,239.1C165.3,238.4 166.6,237.6 167.9,236.8C181.5,228.5 192.7,216.3 199.8,201.1C205,190.1 207.6,178.3 207.6,166C207.6,152 204.1,138.3 197.4,126.1L197.1,125.6C188.7,110.6 175.5,98.3 159.9,91C159.5,90.8 159.2,90.7 158.8,90.5C158.1,90.2 157.3,89.9 156.6,89.5C156.5,89.5 156.4,89.4 156.3,89.4C165.7,97.8 171.8,109.8 172.2,123.3L172.2,126C171.5,151.1 151.3,171.3 126.3,172L123.6,172C110.9,171.8 98.7,169 87.4,163.7C70.5,155.8 56.3,142.4 47.3,126.1L47,125.4C40.1,112.6 36.4,98.1 36.4,83.4C36.4,70.3 39.2,57.6 44.7,45.8C45.3,44.6 45.9,43.4 46.5,42.2C46.8,41.7 47.1,41.1 47.4,40.6C47.8,39.8 48.3,39 48.8,38.2C49,37.8 49.3,37.4 49.5,37C49.8,36.4 50.2,35.9 50.6,35.3C50.7,35.1 50.8,34.9 51,34.7C51.4,34.1 51.8,33.5 52.2,32.9C54,30.3 55.9,27.8 58,25.4C58.5,24.9 58.9,24.3 59.4,23.8C59.5,23.6 59.7,23.5 59.9,23.3C60.4,22.7 61,22.1 61.5,21.6L61.6,21.5C62.1,21 62.6,20.4 63.2,19.9C63.4,19.7 63.6,19.5 63.8,19.3C64.2,18.9 64.6,18.6 65,18.2C65.3,17.9 65.6,17.6 66,17.3C66.5,16.9 66.9,16.5 67.4,16.1L67.5,16C68.1,15.5 68.8,14.9 69.4,14.4C70.1,13.8 70.8,13.3 71.5,12.8C59,19.1 47.4,27.2 37.3,37.3" style="fill:url(#g1);fill-rule:nonzero;"/>
  <path d="M122.7,1C120.7,1.1 118.8,1.2 116.9,1.4C115.9,1.5 115,1.6 114,1.7C113,1.8 112.1,2 111.1,2.1C110.1,2.3 109.2,2.4 108.3,2.6C106.4,3 104.6,3.4 102.7,3.9C100.9,4.4 99.1,5 97.3,5.6C95.5,6.2 93.8,6.9 92,7.7C82.5,11.8 73.8,17.7 66.5,25C65.8,25.7 65.2,26.3 64.5,27C58.7,33.4 53.8,40.6 50,48.6C44.8,59.6 42.2,71.4 42.2,83.7C42.2,97.6 45.7,111.4 52.4,123.5L52.7,124C61.1,139 74.3,151.3 89.9,158.6C91.1,159.2 92.4,159.7 93.6,160.2C84.2,151.8 78.1,139.7 77.7,126.2L77.7,123.5C78.4,98.4 98.6,78.3 123.6,77.6L128.1,77.6C129.9,77.7 131.7,77.8 133.4,77.9C134.2,78 135,78.1 135.7,78.2C136.5,78.3 137.3,78.4 138,78.5L140.3,78.9C140.7,79 141,79 141.4,79.1C141.8,79.2 142.2,79.3 142.6,79.3C143,79.4 143.3,79.4 143.6,79.5C144.1,79.6 144.6,79.7 145.1,79.8C145.4,79.9 145.7,80 146.1,80C146.5,80.1 146.8,80.2 147.2,80.3C147.5,80.4 147.9,80.5 148.3,80.6C148.7,80.7 149,80.8 149.4,80.9C150.2,81.1 151.1,81.4 151.9,81.7L152.7,82C153.7,82.3 154.7,82.7 155.7,83.1L155.9,83.2C156.1,83.3 156.2,83.3 156.4,83.4C156.9,83.6 157.5,83.8 158,84C159,84.4 160,84.8 161,85.3C161.4,85.5 161.8,85.7 162.2,85.8C179.1,93.7 193.3,107 202.3,123.4L202.7,124.1C209.6,136.9 213.3,151.4 213.3,166.1C213.3,179.2 210.5,191.9 205,203.7C204.4,204.9 203.8,206.2 203.2,207.3C202.9,207.8 202.6,208.4 202.3,208.9C201.9,209.7 201.4,210.5 200.9,211.3C200.7,211.7 200.4,212.1 200.2,212.5C199.9,213 199.6,213.5 199.3,214C199.1,214.4 198.8,214.8 198.5,215.2C198.3,215.5 198.1,215.8 197.9,216.2C197.6,216.7 197.2,217.2 196.9,217.7C196.7,217.9 196.6,218.1 196.4,218.3C196,218.9 195.6,219.4 195.1,220C194.6,220.7 194,221.4 193.4,222.1C192.5,223.2 191.5,224.4 190.5,225.5C190.2,225.9 189.8,226.3 189.5,226.6C189.4,226.7 189.3,226.8 189.2,226.9C188.7,227.4 188.2,228 187.7,228.5L185.5,230.7C185.3,230.9 185,231.1 184.8,231.4C184.4,231.8 183.9,232.2 183.5,232.6C183.2,232.8 182.9,233.1 182.6,233.3C182.1,233.7 181.6,234.2 181,234.6C180,235.4 179.1,236.2 178.1,236.9C190.6,230.9 202.2,222.7 212.3,212.7C235.1,189.9 248,159.7 248.6,127.5L248.6,122.7C248,90.4 235.1,60.1 212.3,37.4C190,14.7 160,1.8 128,1.1L126,1L122.7,1Z" style="fill:url(#g2);fill-rule:nonzero;"/>
</svg>
